<svg width="20" height="20" viewBox="0 0 20 20" fill="none" xmlns="http://www.w3.org/2000/svg">
<path d="M9.70703 12.9883C9.10297 12.9883 8.61328 13.478 8.61328 14.082C8.61328 14.6861 9.10297 15.1758 9.70703 15.1758C10.3111 15.1758 10.8008 14.6861 10.8008 14.082C10.8008 13.478 10.3111 12.9883 9.70703 12.9883ZM10.0066 12.0508H9.38164C9.12277 12.0508 8.91289 11.8409 8.91289 11.582V11.5671C8.91289 8.81937 11.9379 9.08203 11.9379 7.37152C11.9379 6.58965 11.2441 5.80078 9.69414 5.80078C8.5557 5.80078 7.96504 6.1777 7.38121 6.92156C7.22855 7.11609 6.94941 7.15574 6.74652 7.01437L6.23348 6.65695C6.01375 6.50387 5.96551 6.19715 6.13016 5.98598C6.9593 4.92242 7.94305 4.23828 9.69414 4.23828C11.7379 4.23828 13.5004 5.40043 13.5004 7.37152C13.5004 10.0049 10.4754 9.86562 10.4754 11.5671V11.582C10.4754 11.8409 10.2655 12.0508 10.0066 12.0508ZM9.70703 1.26953C14.3407 1.26953 18.1445 5.02246 18.1445 9.70703C18.1445 14.3668 14.3707 18.1445 9.70703 18.1445C5.04906 18.1445 1.26953 14.3726 1.26953 9.70703C1.26953 5.05066 5.04305 1.26953 9.70703 1.26953ZM9.70703 0.0195312C4.35715 0.0195312 0.0195312 4.35871 0.0195312 9.70703C0.0195312 15.0585 4.35715 19.3945 9.70703 19.3945C15.0569 19.3945 19.3945 15.0585 19.3945 9.70703C19.3945 4.35871 15.0569 0.0195312 9.70703 0.0195312Z" fill="black" stroke="black" stroke-width="0.0390625"/>
</svg>
