<svg width="17" height="16" viewBox="0 0 17 16" fill="none" xmlns="http://www.w3.org/2000/svg">
<path d="M15.9375 5.76875L14.3562 1.025C14.1531 0.4125 13.5813 0 12.9344 0H3.09687C2.45 0 1.87812 0.4125 1.675 1.025L0.09375 5.76875C0.04375 5.92188 0.015625 6.08125 0.015625 6.24375V14.5C0.015625 15.3281 0.6875 16 1.51562 16H14.5156C15.3438 16 16.0156 15.3281 16.0156 14.5V6.24375C16.0156 6.08125 15.9906 5.92188 15.9375 5.76875ZM1.01562 6.24375C1.01562 6.19063 1.025 6.1375 1.04062 6.08437L2.62188 1.34063C2.69062 1.1375 2.88125 1 3.09687 1H7.51562V6.25H1.01562V6.24375ZM15.0156 14.5C15.0156 14.775 14.7906 15 14.5156 15H1.51562C1.24063 15 1.01562 14.775 1.01562 14.5V7.25H15.0156V14.5ZM15.0156 6.25H8.51562V1H12.9344C13.15 1 13.3406 1.1375 13.4094 1.34063L14.9906 6.08437C15.0063 6.13438 15.0156 6.1875 15.0156 6.24375V6.25Z" fill="black" stroke="black" stroke-width="0.03125"/>
</svg>
