<svg width="20" height="13" viewBox="0 0 20 13" fill="none" xmlns="http://www.w3.org/2000/svg">
<path d="M19.7693 5.56008C17.8115 2.23779 14.1601 0.017334 10 0.017334C5.83821 0.017334 2.18766 2.23935 0.23078 5.56008C0.0796862 5.81647 0 6.10864 0 6.40624C0 6.70384 0.0796862 6.99601 0.23078 7.2524C2.18859 10.5747 5.83995 12.7951 10 12.7951C14.1618 12.7951 17.8124 10.5731 19.7693 7.25237C19.9203 6.99598 20 6.70382 20 6.40622C20 6.10863 19.9203 5.81646 19.7693 5.56008ZM10 11.1284C6.43904 11.1284 3.33019 9.2291 1.66668 6.40622C3.19991 3.80438 5.96102 1.98713 9.17231 1.71848C9.51245 2.06865 9.72224 2.54615 9.72224 3.07289C9.72224 4.14678 8.85168 5.01733 7.77779 5.01733C6.70391 5.01733 5.83335 4.14678 5.83335 3.07289L5.83338 3.07143C5.47898 3.7341 5.27779 4.49108 5.27779 5.29511C5.27779 7.90313 7.392 10.0173 10 10.0173C12.608 10.0173 14.7222 7.90313 14.7222 5.29511C14.7222 4.21765 14.3611 3.22466 13.7537 2.43001C15.6842 3.23393 17.292 4.63907 18.3334 6.40622C16.6699 9.2291 13.561 11.1284 10 11.1284Z" fill="black" stroke="black" stroke-width="0.0347222"/>
</svg>
