<svg width="18" height="20" viewBox="0 0 18 20" fill="none" xmlns="http://www.w3.org/2000/svg">
<path d="M13.75 12.5C14.7916 12.5 15.6771 12.8646 16.4062 13.5938C17.1354 14.3229 17.5 15.2084 17.5 16.25C17.5 17.2916 17.1354 18.1771 16.4062 18.9062C15.6771 19.6354 14.7916 20 13.75 20C12.7084 20 11.8229 19.6354 11.0938 18.9062C10.3646 18.1771 10 17.2916 10 16.25C10 15.8594 10.0521 15.4817 10.1562 15.1172L6.32812 12.7344C5.59896 13.4115 4.73959 13.75 3.75 13.75C2.70834 13.75 1.82291 13.3854 1.09375 12.6562C0.364584 11.9271 0 11.0417 0 10C0 8.95834 0.364584 8.07291 1.09375 7.34375C1.82291 6.61459 2.70834 6.25 3.75 6.25C4.73959 6.25 5.59896 6.58854 6.32812 7.26562L10.1562 4.88281C10.0521 4.51823 10 4.14062 10 3.75C10 2.70834 10.3646 1.82291 11.0938 1.09375C11.8229 0.364584 12.7084 0 13.75 0C14.7916 0 15.6771 0.364584 16.4062 1.09375C17.1354 1.82291 17.5 2.70834 17.5 3.75C17.5 4.79166 17.1354 5.67709 16.4062 6.40625C15.6771 7.13541 14.7916 7.5 13.75 7.5C12.7604 7.5 11.901 7.16146 11.1719 6.48438L7.34375 8.86719C7.57812 9.6224 7.57812 10.3776 7.34375 11.1328L11.1719 13.5156C11.901 12.8385 12.7604 12.5 13.75 12.5ZM15.0781 2.42188C14.7135 2.05729 14.2709 1.875 13.75 1.875C13.2291 1.875 12.7865 2.05729 12.4219 2.42188C12.0573 2.78646 11.875 3.22916 11.875 3.75C11.875 4.27084 12.0573 4.71354 12.4219 5.07812C12.7865 5.44271 13.2291 5.625 13.75 5.625C14.2709 5.625 14.7135 5.44271 15.0781 5.07812C15.4427 4.71354 15.625 4.27084 15.625 3.75C15.625 3.22916 15.4427 2.78646 15.0781 2.42188ZM2.42188 11.3281C2.78646 11.6927 3.22916 11.875 3.75 11.875C4.27084 11.875 4.71354 11.6927 5.07812 11.3281C5.44271 10.9635 5.625 10.5208 5.625 10C5.625 9.47916 5.44271 9.03646 5.07812 8.67188C4.71354 8.30729 4.27084 8.125 3.75 8.125C3.22916 8.125 2.78646 8.30729 2.42188 8.67188C2.05729 9.03646 1.875 9.47916 1.875 10C1.875 10.5208 2.05729 10.9635 2.42188 11.3281ZM12.4219 17.5781C12.7865 17.9428 13.2291 18.125 13.75 18.125C14.2709 18.125 14.7135 17.9428 15.0781 17.5781C15.4427 17.2135 15.625 16.7709 15.625 16.25C15.625 15.7291 15.4427 15.2865 15.0781 14.9219C14.7135 14.5573 14.2709 14.375 13.75 14.375C13.2291 14.375 12.7865 14.5573 12.4219 14.9219C12.0573 15.2865 11.875 15.7291 11.875 16.25C11.875 16.7709 12.0573 17.2135 12.4219 17.5781Z" fill="black"/>
</svg>
