<svg width="20" height="16" viewBox="0 0 20 16" fill="none" xmlns="http://www.w3.org/2000/svg">
<path d="M8.75 5.01562C8.8875 5.01562 9 4.90312 9 4.76562V4.26562C9 4.12813 8.8875 4.01562 8.75 4.01562H1.25C1.1125 4.01562 1 4.12813 1 4.26562V4.76562C1 4.90312 1.1125 5.01562 1.25 5.01562H8.75ZM19.75 11.0156H19V7.6375C19 7.1125 18.7875 6.59687 18.4125 6.225L15.7906 3.60313C15.4219 3.22813 14.9062 3.01562 14.3781 3.01562H13V1.47187C13 0.66875 12.3063 0.015625 11.4563 0.015625H3.54375C2.69375 0.015625 2 0.66875 2 1.47187V2.01562H0.25C0.1125 2.01562 0 2.12812 0 2.26562V2.76562C0 2.90313 0.1125 3.01562 0.25 3.01562H7.75C7.8875 3.01562 8 2.90313 8 2.76562V2.26562C8 2.12812 7.8875 2.01562 7.75 2.01562H3V1.47187C3 1.21875 3.24375 1.01562 3.54375 1.01562H11.4563C11.7563 1.01562 12 1.21875 12 1.47187V11.0156H6.4875C6.03125 10.4125 5.3125 10.0156 4.5 10.0156C3.93438 10.0156 3.41875 10.2094 3 10.5281V8.01562H2V12.5156C2 13.8969 3.11875 15.0156 4.5 15.0156C5.88125 15.0156 7 13.8969 7 12.5156C7 12.3438 6.98125 12.1781 6.95 12.0156H13.05C13.0156 12.1781 13 12.3438 13 12.5156C13 13.8969 14.1187 15.0156 15.5 15.0156C16.8813 15.0156 18 13.8969 18 12.5156C18 12.3438 17.9813 12.1781 17.95 12.0156H19.75C19.8875 12.0156 20 11.9031 20 11.7656V11.2656C20 11.1281 19.8875 11.0156 19.75 11.0156ZM4.5 14.0156C3.67188 14.0156 3 13.3438 3 12.5156C3 11.6875 3.67188 11.0156 4.5 11.0156C5.32812 11.0156 6 11.6875 6 12.5156C6 13.3438 5.32812 14.0156 4.5 14.0156ZM13 4.01562H14.3781C14.6406 4.01562 14.9 4.12187 15.0844 4.30937L17.7062 6.93125C17.7312 6.95625 17.7406 6.99063 17.7625 7.01875H13V4.01562ZM15.5 14.0156C14.6719 14.0156 14 13.3438 14 12.5156C14 11.6875 14.6719 11.0156 15.5 11.0156C16.3281 11.0156 17 11.6875 17 12.5156C17 13.3438 16.3281 14.0156 15.5 14.0156ZM18 11.0156H17.4875C17.0312 10.4125 16.3125 10.0156 15.5 10.0156C14.6875 10.0156 13.9688 10.4125 13.5125 11.0156H13V8.01562H18V11.0156ZM8 6.76562V6.26562C8 6.12813 7.8875 6.01562 7.75 6.01562H0.25C0.1125 6.01562 0 6.12813 0 6.26562V6.76562C0 6.90312 0.1125 7.01562 0.25 7.01562H7.75C7.8875 7.01562 8 6.90312 8 6.76562Z" fill="black" stroke="black" stroke-width="0.03125"/>
</svg>
