<svg width="14" height="18" viewBox="0 0 14 18" fill="none" xmlns="http://www.w3.org/2000/svg">
<path d="M5.7815 13.75H4.06275V0.625C4.06275 0.45924 3.9969 0.300268 3.87969 0.183058C3.76248 0.065848 3.60351 0 3.43775 0H2.81275C2.64699 0 2.48802 0.065848 2.37081 0.183058C2.2536 0.300268 2.18775 0.45924 2.18775 0.625V13.75H0.468998C0.377404 13.75 0.287803 13.7767 0.211266 13.8271C0.134728 13.8774 0.0746071 13.949 0.0383312 14.0331C0.00205531 14.1172 -0.0087861 14.2101 0.00714658 14.3003C0.0230793 14.3905 0.0650879 14.474 0.127982 14.5406L2.78423 17.3531C2.82804 17.3995 2.88085 17.4364 2.93942 17.4616C2.99798 17.4868 3.06109 17.4998 3.12486 17.4998C3.18863 17.4998 3.25173 17.4868 3.3103 17.4616C3.36887 17.4364 3.42167 17.3995 3.46548 17.3531L6.12173 14.5406C6.18458 14.4741 6.22657 14.3906 6.24253 14.3005C6.25849 14.2104 6.24772 14.1175 6.21154 14.0335C6.17536 13.9494 6.11536 13.8777 6.03894 13.8274C5.96252 13.777 5.87302 13.7501 5.7815 13.75ZM13.6221 2.95938L10.9659 0.146875C10.9221 0.100534 10.8693 0.0636208 10.8107 0.0383924C10.7521 0.013164 10.689 0.000151694 10.6252 0.000151694C10.5615 0.000151694 10.4984 0.013164 10.4398 0.0383924C10.3812 0.0636208 10.3284 0.100534 10.2846 0.146875L7.62837 2.95938C7.5655 3.02594 7.5235 3.10945 7.50755 3.19962C7.49161 3.28978 7.50242 3.38263 7.53864 3.46672C7.57487 3.55081 7.63493 3.62245 7.71141 3.67279C7.78789 3.72313 7.87744 3.74997 7.969 3.75H9.68775V16.875C9.68775 17.0408 9.7536 17.1997 9.8708 17.3169C9.98802 17.4342 10.147 17.5 10.3127 17.5H10.9377C11.1035 17.5 11.2625 17.4342 11.3797 17.3169C11.4969 17.1997 11.5627 17.0408 11.5627 16.875V3.75H13.2815C13.3731 3.74997 13.4626 3.72313 13.5391 3.67279C13.6156 3.62245 13.6756 3.55081 13.7119 3.46672C13.7481 3.38263 13.7589 3.28978 13.7429 3.19962C13.727 3.10945 13.685 3.02594 13.6221 2.95938Z" fill="black"/>
</svg>
