<svg width="18" height="20" viewBox="0 0 18 20" fill="none" xmlns="http://www.w3.org/2000/svg">
<path d="M12.2695 11.875C11.1484 11.875 10.6094 12.5 8.76953 12.5C6.92969 12.5 6.39453 11.875 5.26953 11.875C2.37109 11.875 0.0195312 14.2266 0.0195312 17.125V18.125C0.0195312 19.1602 0.859375 20 1.89453 20H15.6445C16.6797 20 17.5195 19.1602 17.5195 18.125V17.125C17.5195 14.2266 15.168 11.875 12.2695 11.875ZM15.6445 18.125H1.89453V17.125C1.89453 15.2656 3.41016 13.75 5.26953 13.75C5.83984 13.75 6.76562 14.375 8.76953 14.375C10.7891 14.375 11.6953 13.75 12.2695 13.75C14.1289 13.75 15.6445 15.2656 15.6445 17.125V18.125ZM8.76953 11.25C11.875 11.25 14.3945 8.73047 14.3945 5.625C14.3945 2.51953 11.875 0 8.76953 0C5.66406 0 3.14453 2.51953 3.14453 5.625C3.14453 8.73047 5.66406 11.25 8.76953 11.25ZM8.76953 1.875C10.8359 1.875 12.5195 3.55859 12.5195 5.625C12.5195 7.69141 10.8359 9.375 8.76953 9.375C6.70312 9.375 5.01953 7.69141 5.01953 5.625C5.01953 3.55859 6.70312 1.875 8.76953 1.875Z" fill="#484848" stroke="#484848" stroke-width="0.0390625"/>
</svg>
