<svg width="18" height="20" viewBox="0 0 18 20" fill="none" xmlns="http://www.w3.org/2000/svg">
<path d="M13.7695 5C13.7695 2.24297 11.5265 0 8.76953 0C6.0125 0 3.76953 2.24297 3.76953 5H0.0195312V16.875C0.0195312 18.6009 1.41863 20 3.14453 20H14.3945C16.1204 20 17.5195 18.6009 17.5195 16.875V5H13.7695ZM8.76953 1.875C10.4927 1.875 11.8945 3.27688 11.8945 5H5.64453C5.64453 3.27688 7.04641 1.875 8.76953 1.875ZM15.6445 16.875C15.6445 17.5643 15.0838 18.125 14.3945 18.125H3.14453C2.45527 18.125 1.89453 17.5643 1.89453 16.875V6.875H3.76953V8.4375C3.76953 8.95527 4.18926 9.375 4.70703 9.375C5.2248 9.375 5.64453 8.95527 5.64453 8.4375V6.875H11.8945V8.4375C11.8945 8.95527 12.3143 9.375 12.832 9.375C13.3498 9.375 13.7695 8.95527 13.7695 8.4375V6.875H15.6445V16.875Z" fill="#484848" stroke="#484848" stroke-width="0.0390625"/>
</svg>
